<?xml version="1.0" encoding="UTF-8"?>
<svg id="Layer_2" data-name="Layer 2" xmlns="http://www.w3.org/2000/svg" viewBox="0 0 261.21 184.75">
  <defs>
    <style>
      .cls-1 {
        fill: #232055;
      }
    </style>
  </defs>
  <g id="Layer_1-2" data-name="Layer 1">
    <g>
      <g>
        <polygon class="cls-1" points="107.14 77.61 107.14 144.58 93.59 154.74 93.6 107.85 71.35 124.54 71.35 171.42 53.57 184.75 35.44 171.15 35.44 123.88 13.2 107.16 13.2 154.47 0 144.58 0 77.61 53.57 117.79 107.14 77.61"/>
        <polygon class="cls-1" points="107.15 0 107.15 67.29 53.57 107.46 53.57 91.99 93.6 61.98 93.6 53.16 53.57 83.2 53.57 66.61 93.6 36.58 93.6 27.54 53.57 57.57 53.57 40.2 107.15 0"/>
      </g>
      <g>
        <path class="cls-1" d="M132.7,95.29c-1.46,0-2.72-.35-3.79-1.06-1.06-.71-1.85-1.72-2.36-3.03l2.88-1.17c.74,1.48,1.83,2.22,3.27,2.22.84,0,1.51-.21,1.99-.62.48-.41.73-.98.73-1.7,0-.68-.25-1.22-.74-1.62s-1.16-.6-2-.6h-1.67v-3.06h1.62c.68,0,1.21-.2,1.61-.59.39-.39.59-.92.59-1.58s-.2-1.14-.61-1.53-.93-.59-1.59-.59c-.56,0-1.07.15-1.52.44s-.83.72-1.13,1.28l-2.9-1.13c.54-1.15,1.29-2.04,2.26-2.67.97-.63,2.08-.95,3.32-.95,1.06,0,1.99.2,2.8.61.81.41,1.44.98,1.9,1.71.45.73.68,1.57.68,2.52,0,.8-.18,1.54-.55,2.2-.37.67-.88,1.21-1.54,1.62.83.33,1.49.88,1.97,1.64.48.76.72,1.64.72,2.63s-.25,1.84-.76,2.6c-.5.76-1.2,1.35-2.1,1.78-.9.43-1.92.64-3.07.64Z"/>
        <path class="cls-1" d="M149.43,95.29l-4.44-9.67c-.06-.12-.12-.27-.19-.43-.07-.17-.12-.33-.17-.5,0,.13.01.29.02.47,0,.18,0,.34,0,.48v9.35h-3.21v-17.36h3.21l4.4,9.84c.08.18.16.36.23.54s.14.36.21.55c.07-.19.13-.38.2-.56s.14-.36.21-.53l4.49-9.84h3.01v17.36h-3.21v-9.37c0-.15,0-.31,0-.5,0-.18,0-.33,0-.45-.05.15-.11.31-.18.48s-.14.32-.21.46l-4.39,9.67Z"/>
        <path class="cls-1" d="M132.79,120.08c-.97,0-1.84-.17-2.63-.5-.79-.33-1.45-.79-2-1.36-.55-.57-.96-1.22-1.22-1.93l1.67-.59c.37.82.93,1.48,1.66,1.98s1.59.76,2.57.76c1.1,0,1.98-.27,2.65-.82.67-.55,1-1.34,1-2.38,0-.7-.19-1.3-.57-1.8-.38-.5-.88-.92-1.49-1.26-.61-.34-1.26-.64-1.96-.9-.59-.22-1.19-.47-1.78-.75-.59-.28-1.13-.6-1.61-.98s-.87-.83-1.16-1.37c-.29-.54-.43-1.17-.43-1.91s.2-1.45.6-2.08c.4-.62.98-1.12,1.74-1.49.76-.37,1.68-.56,2.76-.56.85,0,1.61.13,2.28.38.67.26,1.23.61,1.67,1.07s.76.98.94,1.56l-1.62.55c-.23-.57-.63-1.04-1.21-1.39s-1.3-.54-2.19-.54c-.99,0-1.77.23-2.34.68-.57.45-.85,1.06-.85,1.84,0,.6.19,1.11.56,1.51.37.41.86.75,1.46,1.04.6.29,1.23.57,1.9.83.59.22,1.18.48,1.78.78.6.3,1.15.66,1.64,1.08s.9.94,1.2,1.54c.31.6.46,1.32.46,2.15,0,1.04-.24,1.92-.71,2.65s-1.13,1.27-1.95,1.65c-.83.38-1.77.57-2.83.57Z"/>
        <path class="cls-1" d="M141.84,119.78v-17.36h9.89v1.62h-8.16v5.94h5.42v1.62h-5.42v6.52h8.7v1.65h-10.44Z"/>
        <path class="cls-1" d="M155.65,119.78v-17.36h6.55c1.35,0,2.41.23,3.18.7.77.47,1.32,1.07,1.65,1.8.33.74.49,1.5.49,2.29,0,.72-.14,1.41-.43,2.08s-.74,1.25-1.36,1.73-1.43.81-2.43.97l3.82,7.77h-1.96l-3.69-7.67h-4.08v7.67h-1.74ZM157.39,110.5h4.85c.88,0,1.58-.16,2.1-.48.51-.32.88-.73,1.1-1.23.22-.5.33-1,.33-1.52,0-.46-.1-.94-.3-1.44-.2-.5-.56-.92-1.07-1.26-.51-.34-1.23-.51-2.15-.51h-4.85v6.46Z"/>
        <path class="cls-1" d="M175.23,119.78l-5.94-17.36h1.86l4.41,13.19c.07.22.15.45.23.71.08.26.15.53.23.81.07-.28.15-.55.22-.8.07-.25.15-.49.22-.73l4.34-13.19h1.86l-5.93,17.36h-1.51Z"/>
        <path class="cls-1" d="M185.74,119.78v-17.36h1.74v17.36h-1.74Z"/>
        <path class="cls-1" d="M190.11,119.78v-1.26l10.13-14.44h-9.56v-1.65h11.81v1.28l-10.07,14.43h10.07v1.65h-12.38Z"/>
        <path class="cls-1" d="M205.96,119.78v-17.36h1.74v17.36h-1.74Z"/>
        <path class="cls-1" d="M127.89,144.58v-17.36h1.74v17.36h-1.74Z"/>
        <path class="cls-1" d="M141.27,144.87l-5.08-11.96c-.11-.26-.22-.53-.33-.82-.12-.29-.22-.56-.31-.81.02.21.03.46.04.77,0,.31.01.59.01.86v11.67h-1.74v-17.36h1.62l5.32,12.48c.08.19.16.39.24.59.08.2.15.4.23.6.08-.2.15-.4.23-.59.08-.2.16-.4.24-.6l5.31-12.48h1.64v17.36h-1.74v-11.67c0-.26,0-.55.01-.86,0-.31.02-.57.03-.77-.09.24-.2.51-.32.82-.12.31-.24.59-.35.84l-5.05,11.94Z"/>
        <path class="cls-1" d="M160.32,144.87l-5.08-11.96c-.11-.26-.22-.53-.33-.82-.12-.29-.22-.56-.31-.81.02.21.03.46.04.77,0,.31.01.59.01.86v11.67h-1.74v-17.36h1.62l5.32,12.48c.08.19.16.39.24.59.08.2.16.4.23.6.07-.2.15-.4.23-.59.08-.2.16-.4.24-.6l5.31-12.48h1.64v17.36h-1.74v-11.67c0-.26,0-.55.01-.86,0-.31.02-.57.02-.77-.09.24-.2.51-.32.82s-.24.59-.35.84l-5.05,11.94Z"/>
        <path class="cls-1" d="M178.41,144.87c-1.32,0-2.44-.26-3.35-.79s-1.65-1.22-2.21-2.1c-.56-.87-.96-1.84-1.22-2.89-.26-1.06-.38-2.12-.38-3.2s.13-2.14.38-3.2c.26-1.06.66-2.02,1.22-2.89.56-.87,1.29-1.57,2.21-2.1s2.03-.79,3.35-.79,2.45.26,3.37.79c.92.52,1.65,1.22,2.21,2.1s.96,1.84,1.21,2.89c.25,1.06.38,2.12.38,3.2s-.13,2.14-.38,3.2-.66,2.02-1.21,2.89c-.55.87-1.29,1.57-2.21,2.1-.92.52-2.04.79-3.37.79ZM178.41,143.23c1,0,1.84-.22,2.52-.66.68-.44,1.23-1.02,1.65-1.75.42-.72.72-1.51.9-2.37.19-.86.28-1.71.28-2.54,0-.91-.09-1.8-.28-2.67-.19-.87-.49-1.66-.9-2.36-.42-.7-.97-1.26-1.65-1.68-.68-.42-1.52-.63-2.52-.63s-1.83.22-2.51.66c-.68.44-1.23,1.02-1.65,1.75-.42.72-.72,1.52-.91,2.38-.19.86-.29,1.71-.29,2.55,0,.91.09,1.8.29,2.67.19.87.49,1.66.91,2.36.42.7.97,1.26,1.65,1.67.68.42,1.52.63,2.51.63Z"/>
        <path class="cls-1" d="M189.08,144.58v-17.36h5.88c1.33,0,2.38.22,3.14.65.76.43,1.3,1,1.62,1.69.32.69.48,1.41.48,2.16,0,.84-.25,1.6-.74,2.27-.5.67-1.19,1.16-2.08,1.47.71.16,1.32.43,1.83.82.51.39.91.88,1.19,1.46.28.58.42,1.23.42,1.95,0,.58-.09,1.16-.28,1.73-.19.57-.49,1.1-.91,1.57-.42.48-.98.86-1.68,1.14-.7.29-1.57.43-2.6.43h-6.27ZM190.82,134.78h3.71c1.31,0,2.3-.28,2.96-.84s.99-1.3.99-2.22c0-.47-.09-.93-.27-1.38-.18-.45-.51-.82-1-1.11-.49-.29-1.21-.43-2.14-.43h-4.25v5.99ZM190.82,142.99h4.77c.92,0,1.63-.15,2.14-.46s.86-.7,1.07-1.18c.2-.48.3-.98.3-1.5,0-.6-.12-1.17-.36-1.71-.24-.54-.67-.97-1.29-1.3-.62-.33-1.5-.49-2.65-.49h-3.98v6.63Z"/>
        <path class="cls-1" d="M204.31,144.58v-17.36h1.74v17.36h-1.74Z"/>
        <path class="cls-1" d="M210.27,144.58v-17.36h1.74v15.69h8.55v1.66h-10.29Z"/>
        <path class="cls-1" d="M223.18,144.58v-17.36h1.74v17.36h-1.74Z"/>
        <path class="cls-1" d="M227.58,144.58l6.09-17.36h1.55l6.09,17.36h-1.8l-1.55-4.45h-7l-1.54,4.45h-1.83ZM231.45,138.6h5.99l-2.33-6.76c-.05-.15-.12-.35-.21-.61-.09-.26-.17-.53-.26-.8-.09-.27-.15-.5-.19-.67-.04.17-.11.4-.19.67-.09.27-.17.54-.26.8-.09.26-.15.46-.2.61l-2.34,6.76Z"/>
        <path class="cls-1" d="M243.97,144.58v-17.36h6.55c1.35,0,2.41.23,3.18.7.77.47,1.32,1.07,1.65,1.8.33.74.49,1.5.49,2.29,0,.72-.14,1.41-.43,2.08s-.74,1.25-1.36,1.73c-.62.48-1.43.81-2.43.97l3.82,7.77h-1.96l-3.69-7.67h-4.08v7.67h-1.74ZM245.7,135.29h4.85c.88,0,1.58-.16,2.09-.48s.88-.73,1.1-1.23c.22-.5.33-1,.33-1.52,0-.46-.1-.94-.3-1.44s-.56-.92-1.07-1.26c-.51-.34-1.22-.51-2.15-.51h-4.85v6.46Z"/>
        <path class="cls-1" d="M259.48,144.58v-17.36h1.74v17.36h-1.74Z"/>
      </g>
    </g>
  </g>
</svg>