<?xml version="1.0" encoding="UTF-8"?>
<svg id="Layer_2" data-name="Layer 2" xmlns="http://www.w3.org/2000/svg" viewBox="0 0 230.17 306.53">
  <defs>
    <style>
      .cls-1 {
        fill: #000;
        stroke-width: 0px;
      }
    </style>
  </defs>
  <g id="Layer_1-2" data-name="Layer 1">
    <g>
      <path class="cls-1" d="M164.4,0h65.74c0,1.38,0,2.6,0,3.82,0,81.25-.02,162.5.04,243.75,0,6.54-1.38,12.62-4.33,18.43-5.22,10.26-10.43,20.52-15.49,30.86-2.74,5.59-6.68,9.19-13.19,9.15-6.35-.04-10.23-3.58-12.91-9.03-5.13-10.43-10.39-20.79-15.65-31.16-2.83-5.59-4.24-11.46-4.23-17.76.05-81.48.03-162.96.03-244.43V0ZM219.17,239.45c-.03-2.89-2.55-5.39-5.45-5.41-2.9-.02-5.43,2.45-5.49,5.36-.06,3.03,2.59,5.67,5.61,5.58,2.89-.08,5.36-2.65,5.33-5.53ZM175.36,239.24c-.15,2.87,2.23,5.53,5.12,5.73,2.99.21,5.76-2.35,5.82-5.37.06-2.88-2.4-5.46-5.29-5.56-2.88-.1-5.5,2.31-5.65,5.2ZM213.64,228.54c2.88.03,5.45-2.44,5.53-5.33.08-2.88-2.35-5.48-5.25-5.61-3.02-.13-5.71,2.47-5.69,5.5.02,2.9,2.52,5.41,5.41,5.44ZM186.3,223.23c.09-2.88-2.33-5.49-5.23-5.63-2.88-.14-5.52,2.24-5.71,5.14-.19,3.01,2.36,5.76,5.39,5.8,2.88.04,5.46-2.42,5.55-5.31ZM213.7,201.17c-2.9,0-5.42,2.47-5.48,5.37-.05,2.89,2.39,5.46,5.29,5.57,3.01.11,5.7-2.53,5.65-5.55-.04-2.89-2.57-5.39-5.46-5.39ZM180.72,212.11c2.88.06,5.47-2.39,5.58-5.28.11-2.87-2.3-5.5-5.2-5.66-3.02-.16-5.73,2.41-5.75,5.44-.01,2.89,2.47,5.43,5.36,5.5ZM213.83,184.73c-2.89-.08-5.48,2.35-5.6,5.26-.12,2.9,2.25,5.51,5.16,5.68,3.03.18,5.75-2.37,5.78-5.42.03-2.89-2.44-5.45-5.34-5.52ZM180.95,195.67c2.92-.07,5.37-2.6,5.35-5.51-.03-2.9-2.53-5.41-5.43-5.43-3.03-.03-5.64,2.66-5.51,5.68.12,2.92,2.68,5.33,5.59,5.26ZM186.3,10.86c.04-2.93-2.39-5.44-5.33-5.51-2.94-.07-5.49,2.3-5.61,5.23-.13,3.04,2.45,5.7,5.5,5.69,2.92-.01,5.4-2.48,5.44-5.4ZM180.85,168.32c-2.88-.01-5.45,2.5-5.49,5.39-.04,2.95,2.34,5.45,5.28,5.55,3.07.11,5.68-2.44,5.66-5.51-.02-2.87-2.57-5.41-5.45-5.43ZM219.17,157.41c.02-2.87-2.48-5.46-5.35-5.53-2.87-.07-5.48,2.4-5.59,5.29-.12,3.08,2.42,5.67,5.52,5.64,2.96-.03,5.4-2.46,5.42-5.4ZM186.3,157.5c.07-2.88-2.38-5.49-5.27-5.62-2.85-.12-5.52,2.33-5.67,5.21-.17,3.06,2.34,5.71,5.43,5.72,2.96.02,5.43-2.37,5.51-5.32ZM208.23,10.81c.01,2.88,2.52,5.41,5.4,5.46,3.04.05,5.63-2.59,5.54-5.64-.08-2.93-2.61-5.32-5.56-5.26-2.99.06-5.39,2.5-5.38,5.45ZM219.17,173.61c-.1-2.88-2.71-5.36-5.58-5.29-2.89.07-5.39,2.65-5.36,5.52.03,3.09,2.67,5.57,5.75,5.42,2.93-.15,5.29-2.71,5.19-5.64ZM213.7,135.45c-2.85,0-5.42,2.55-5.47,5.42-.04,2.94,2.35,5.42,5.3,5.51,3.09.09,5.69-2.45,5.64-5.52-.04-2.86-2.62-5.42-5.47-5.42ZM186.3,140.95c0-2.86-2.53-5.45-5.38-5.51-2.84-.05-5.46,2.46-5.56,5.33-.1,3.07,2.45,5.65,5.55,5.6,2.95-.04,5.38-2.49,5.39-5.43ZM213.64,129.95c2.96.03,5.44-2.35,5.53-5.29.09-2.99-2.61-5.72-5.59-5.64-2.86.07-5.38,2.67-5.35,5.53.02,2.95,2.45,5.37,5.41,5.4ZM175.36,124.2c-.17,2.91,2.14,5.53,5.07,5.74,3.07.22,5.78-2.21,5.87-5.28.09-2.85-2.38-5.5-5.24-5.65-2.82-.14-5.52,2.32-5.7,5.19ZM213.58,113.51c2.95.06,5.47-2.29,5.58-5.23.12-2.98-2.55-5.74-5.53-5.7-2.86.04-5.4,2.61-5.41,5.48-.01,2.94,2.4,5.4,5.36,5.46ZM180.98,113.51c2.95-.08,5.36-2.56,5.32-5.49-.03-2.86-2.6-5.43-5.45-5.44-2.99-.01-5.63,2.75-5.49,5.74.14,2.94,2.66,5.28,5.62,5.2ZM208.23,91.34c-.18,2.93,2.11,5.52,5.06,5.74,3.1.22,5.78-2.18,5.88-5.27.09-2.86-2.37-5.51-5.24-5.66-2.82-.14-5.53,2.32-5.7,5.19ZM186.3,91.62c-.02-2.87-2.57-5.44-5.42-5.47-2.85-.03-5.44,2.5-5.52,5.38-.08,3.09,2.47,5.62,5.59,5.56,2.98-.06,5.37-2.51,5.35-5.46ZM219.17,75.25c.02-2.87-2.5-5.44-5.39-5.49-2.86-.05-5.47,2.46-5.55,5.33-.08,3.12,2.41,5.63,5.56,5.58,3-.05,5.37-2.43,5.38-5.42ZM186.3,75.28c.03-2.87-2.47-5.45-5.36-5.52-2.86-.07-5.49,2.43-5.58,5.3-.1,3.13,2.38,5.65,5.53,5.61,3-.03,5.38-2.4,5.41-5.39ZM213.77,53.33c-2.83-.04-5.45,2.49-5.54,5.35-.09,2.96,2.24,5.44,5.23,5.56,3.14.13,5.72-2.32,5.71-5.42,0-2.86-2.55-5.44-5.4-5.49ZM186.3,58.94c.06-2.85-2.43-5.49-5.28-5.61-2.82-.12-5.51,2.36-5.66,5.23-.16,3.09,2.31,5.67,5.44,5.68,3.01.01,5.43-2.32,5.5-5.3ZM213.86,36.89c-2.82-.1-5.5,2.39-5.63,5.25-.14,2.96,2.15,5.48,5.13,5.65,3.14.18,5.76-2.21,5.81-5.32.05-2.85-2.45-5.48-5.31-5.58ZM186.3,42.32c-.04-2.86-2.61-5.42-5.46-5.43-2.85,0-5.43,2.54-5.48,5.4-.06,3.11,2.48,5.59,5.62,5.51,2.99-.08,5.36-2.51,5.32-5.48ZM213.6,20.46c-2.86.06-5.38,2.65-5.37,5.52.01,3.11,2.59,5.54,5.74,5.39,2.98-.14,5.31-2.64,5.2-5.59-.1-2.85-2.75-5.38-5.57-5.32ZM186.3,25.89c-.04-2.86-2.61-5.42-5.46-5.43-2.85,0-5.43,2.54-5.48,5.4-.06,3.11,2.48,5.59,5.62,5.51,2.99-.08,5.36-2.51,5.32-5.48ZM195.29,270.18c-.04-3.05-2.35-5.35-5.37-5.35-3.08,0-5.62,2.63-5.49,5.68.13,2.89,2.76,5.34,5.63,5.25,2.95-.09,5.27-2.57,5.23-5.57ZM204.61,264.83c-3.08,0-5.39,2.3-5.38,5.4,0,3.08,2.36,5.5,5.36,5.51,2.94.01,5.49-2.54,5.47-5.45-.02-2.95-2.52-5.45-5.46-5.46ZM187.72,255.83c.06-3.06-2.17-5.44-5.18-5.53-3.18-.1-5.76,2.34-5.72,5.41.03,2.9,2.54,5.38,5.46,5.42,2.99.03,5.39-2.3,5.45-5.3ZM217.73,255.71c.05-2.94-2.33-5.34-5.38-5.41-3.07-.08-5.42,2.11-5.54,5.16-.12,3.15,2.31,5.68,5.43,5.65,2.92-.03,5.43-2.5,5.48-5.4ZM202.73,286.46c.09-2.94-2.26-5.43-5.24-5.54-3.01-.11-5.52,2.13-5.7,5.08-.18,3.1,2.24,5.64,5.41,5.67,3.08.03,5.43-2.2,5.53-5.21Z"/>
      <path class="cls-1" d="M87.7,131.16h-10.7c-.86-2.95-2.43-5.44-6-5.27-3.2.15-4.74,2.37-5.4,5.34h-21.47c-.79-2.9-2.28-5.3-5.67-5.34-3.44-.04-4.94,2.34-5.8,5.33h-10.62v-21.81c-2.16,0-3.95.04-5.74,0C7.32,109.14.15,102.19.1,93.24-.02,72.02-.05,50.79.12,29.56c.06-7.18,3.77-12.61,10.57-14.91,14.93-5.05,30.13-9.03,46.12-8.64,14.64.36,28.64,3.92,42.33,8.73,6.78,2.38,10.37,7.85,10.42,15.03.15,21.11.12,42.22.01,63.34-.05,9.13-7.24,16.09-16.41,16.29-1.69.04-3.38,0-5.46,0v21.76ZM87.9,32.87v65.57c1.96,0,3.55.07,5.15-.01,3.36-.17,5.57-2.27,5.58-5.66.05-20.87.03-41.75.02-62.62,0-2.71-1.32-4.67-3.86-5.46-12.41-3.84-24.85-7.45-38.01-7.79-14.5-.37-28.16,3.57-41.79,7.73-2.69.82-3.99,2.85-3.99,5.71.01,20.76,0,41.52.01,62.28,0,3.19,1.7,5.22,4.78,5.72,1.95.32,3.99.06,6.34.06V32.97h16.9c-.24,1.84-.61,3.41-.61,4.99-.04,14.83-.11,29.66,0,44.48.07,8.55,7.17,15.65,15.64,16,8.68.35,16.83-6.2,17.04-14.83.4-16.85.12-33.71.12-50.74h16.67ZM43.87,114.82c-.03-2.89-2.55-5.39-5.45-5.41-2.9-.02-5.43,2.45-5.49,5.36-.06,3.03,2.59,5.67,5.61,5.58,2.89-.08,5.36-2.65,5.33-5.53ZM54.92,120.35c2.89-.05,5.39-2.59,5.38-5.48,0-2.89-2.5-5.42-5.39-5.46-3.03-.05-5.65,2.62-5.55,5.64.1,2.9,2.67,5.35,5.56,5.3ZM71.24,120.35c2.88.01,5.43-2.48,5.5-5.37.06-2.88-2.39-5.47-5.28-5.58-3.02-.11-5.7,2.5-5.66,5.53.04,2.9,2.55,5.4,5.45,5.41Z"/>
      <path class="cls-1" d="M22.11,306.49v-125.68h65.31v125.56h-10.49c-.73-2.82-2.27-5.17-5.67-5.15-3.36.02-5.04,2.22-5.67,5.32h-21.49c-.76-3.01-2.31-5.32-5.72-5.33-3.41,0-4.94,2.34-5.71,5.28h-10.57ZM71.25,268.28c-2.9,0-5.42,2.49-5.45,5.4-.04,2.89,2.42,5.45,5.31,5.54,3.01.09,5.69-2.56,5.63-5.57-.06-2.89-2.59-5.38-5.49-5.37ZM38.33,268.28c-2.9.04-5.39,2.55-5.4,5.45-.01,2.89,2.47,5.43,5.36,5.49,3.01.06,5.67-2.61,5.58-5.62-.08-2.89-2.65-5.36-5.54-5.32ZM71.22,262.78c2.88.02,5.44-2.46,5.51-5.35.07-2.88-2.37-5.47-5.26-5.59-3.02-.13-5.71,2.48-5.68,5.51.03,2.9,2.53,5.4,5.43,5.43ZM43.87,257.25c-.03-2.89-2.55-5.39-5.45-5.41-2.9-.02-5.43,2.46-5.49,5.36-.06,3.03,2.59,5.67,5.61,5.58,2.89-.08,5.36-2.65,5.33-5.53ZM71.23,235.41c-2.9.02-5.41,2.51-5.43,5.42-.03,2.89,2.44,5.45,5.33,5.52,3.01.08,5.68-2.58,5.61-5.59-.07-2.89-2.62-5.37-5.51-5.35ZM38.36,235.41c-2.9.02-5.41,2.51-5.43,5.42-.03,2.89,2.44,5.45,5.33,5.52,3.01.08,5.68-2.58,5.61-5.59-.07-2.89-2.62-5.37-5.51-5.35ZM71.24,229.91c2.88.01,5.43-2.48,5.5-5.37.06-2.88-2.39-5.47-5.28-5.58-3.02-.11-5.7,2.5-5.66,5.53.04,2.9,2.55,5.4,5.45,5.41ZM38.38,218.97c-2.9,0-5.42,2.49-5.45,5.4-.04,2.89,2.42,5.45,5.31,5.54,3.01.09,5.69-2.56,5.63-5.57-.06-2.89-2.59-5.38-5.49-5.37ZM71.25,202.54c-2.9,0-5.42,2.49-5.45,5.4-.04,2.89,2.42,5.45,5.31,5.54,3.01.09,5.69-2.56,5.63-5.57-.06-2.89-2.59-5.38-5.49-5.37ZM43.87,207.95c-.03-2.89-2.55-5.39-5.45-5.41-2.9-.02-5.43,2.46-5.49,5.36-.06,3.03,2.59,5.67,5.61,5.58,2.89-.08,5.36-2.65,5.33-5.53ZM38.39,295.65c2.89,0,5.42-2.49,5.48-5.38.05-2.88-2.4-5.46-5.3-5.56-3.02-.1-5.69,2.52-5.64,5.55.05,2.9,2.57,5.39,5.46,5.39ZM71.14,186.1c-2.9.07-5.37,2.61-5.34,5.51.03,2.9,2.53,5.41,5.42,5.43,3.02.03,5.64-2.68,5.52-5.68-.12-2.9-2.71-5.33-5.6-5.26ZM43.87,191.43c-.08-2.89-2.63-5.36-5.52-5.33-2.9.03-5.4,2.53-5.42,5.43-.02,3.03,2.68,5.64,5.69,5.51,2.89-.13,5.33-2.73,5.25-5.61ZM71.25,284.71c-2.9,0-5.42,2.49-5.45,5.4-.04,2.89,2.42,5.45,5.31,5.54,3.01.09,5.69-2.56,5.63-5.57-.06-2.89-2.59-5.38-5.49-5.37Z"/>
      <path class="cls-1" d="M92.97,169.6H16.76v-27.09h76.21v27.09Z"/>
      <path class="cls-1" d="M60.31,60.16c0,6.85.02,13.69,0,20.54-.02,4.27-2.13,6.81-5.54,6.76-3.39-.04-5.4-2.56-5.4-6.9-.02-13.69-.02-27.38,0-41.07,0-4.27,2.12-6.8,5.53-6.76,3.39.04,5.39,2.56,5.41,6.89.02,6.84,0,13.69,0,20.54Z"/>
    </g>
  </g>
</svg>