<?xml version="1.0" encoding="UTF-8"?>
<svg id="Layer_2" data-name="Layer 2" xmlns="http://www.w3.org/2000/svg" viewBox="0 0 293.01 294.36">
  <defs>
    <style>
      .cls-1 {
        fill: #000;
        stroke-width: 0px;
      }
    </style>
  </defs>
  <g id="Layer_1-2" data-name="Layer 1">
    <path class="cls-1" d="M33.37,294.36c-2.29-.6-4.61-1.09-6.86-1.81-27.6-8.91-35.68-44.14-14.54-64.18,42.42-40.21,85-80.25,127.57-120.29,1.75-1.64,2.02-2.94,1.27-5.16-12.96-38.53,5.94-80.56,43.3-96.54C195.5,1.51,207.36-.5,219.7.1c3.38.16,6.34.95,7.67,4.42,1.32,3.43-.18,6.04-2.61,8.45-11.69,11.62-23.3,23.32-35.01,34.91-1.41,1.39-1.76,2.54-1.13,4.47,4.04,12.36,7.97,24.76,11.83,37.18.54,1.73,1.31,2.67,3.12,3.22,12.52,3.87,25.01,7.83,37.47,11.88,1.83.6,2.91.24,4.22-1.08,11.6-11.71,23.25-23.36,34.97-34.95,1.31-1.3,3-2.56,4.73-3.01,4.29-1.1,8.04,2.01,8.03,6.96-.01,6.49.21,13.15-1.12,19.43-7.08,33.62-27.47,54.8-60.95,62.78-13.58,3.24-27.22,2.21-40.49-2.32-2.28-.78-3.66-.53-5.38,1.33-39.49,42.69-79.06,85.32-118.63,127.94-6.2,6.68-13.77,10.85-22.86,12.15-.35.05-.67.31-1,.47h-9.2ZM50.12,257.09c-.02-7.79-6.26-13.98-14.06-13.96-7.71.02-14.1,6.42-14.05,14.08.05,7.63,6.57,14.09,14.16,14.04,7.72-.05,13.97-6.4,13.95-14.15Z"/>
  </g>
</svg>